<svg data-testid="svg-symbol" xmlns="http://www.w3.org/2000/svg" xmlns:xlink="http://www.w3.org/1999/xlink" class="SvgSymbol-module_root__2CsRW SvgSymbol-module_medium__2eF5L SvgSymbol-module_reaction__rrJvf SvgSymbol-module_isInToolbar__3SaIh" width="16" height="16" viewBox="0 0 16 16">
   <path data-theme="light" fill="#D09959" d="M1 2h14v12H1z"></path>
   <path d="M0 1.778C0 .8.8 0 1.778 0h12.444C15.2 0 16 .8 16 1.778v12.444C16 15.2 15.2 16 14.222 16H1.778C.8 16 0 15.2 0 14.222V1.778zM6.8 11.7l2.5.8V6.2h1.6v5.5l2.5.8 1.6-2.3h-1.6V4.8L10.9 4 9.3 5.9V4.8L6.8 4 5.1 5.9V4.8L2.6 4 1 6.2h1.6v5.5l2.5.8V6.2h1.7v5.5z"></path>
</svg>
