<svg data-testid="svg-symbol" xmlns="http://www.w3.org/2000/svg" xmlns:xlink="http://www.w3.org/1999/xlink" class="SvgSymbol-module_root__2CsRW SvgSymbol-module_medium__2eF5L SvgSymbol-module_vk__3VEuu SvgSymbol-module_isInToolbar__3SaIh" width="20" height="18" viewBox="0 0 20 18">
   <path d="M16.517 9.851s2.587-3.768 2.886-5.058c.1-.396-.1-.694-.498-.694h-2.288c-.498 0-.697.199-.896.595 0 0-1.194 2.678-2.686 4.364-.498.496-.697.694-.995.694-.2 0-.299-.198-.299-.694V4.793c0-.595-.1-.793-.597-.793H7.463c-.2 0-.398.198-.398.397 0 .595.796.694.796 2.28v3.174c0 .595 0 .893-.299.893-.796 0-2.686-2.777-3.681-5.851-.2-.595-.398-.794-.995-.794H.597C.299 4.1 0 4.298 0 4.694c0 .595.697 3.471 3.483 7.34C5.373 14.611 7.86 16 10.05 16c1.393 0 1.691-.198 1.691-.793v-1.984c0-.496.2-.694.498-.694s.895.1 2.189 1.388C15.92 15.405 16.02 16 16.915 16h2.587c.299 0 .498-.1.498-.595 0-.595-.796-1.587-1.89-2.876-.498-.595-1.195-1.29-1.493-1.686-.398-.397-.299-.595-.1-.992" fill-rule="nonzero"></path>
</svg>
