<svg width="34" height="24" viewBox="0 0 34 24" fill="none" xmlns="http://www.w3.org/2000/svg">
<rect x="0.5" y="0.5" width="33" height="23" rx="1.5" fill="#FCFCFC" stroke="#E0E2EC"/>
<path fill-rule="evenodd" clip-rule="evenodd" d="M9.38528 8.28925C9.104 8.62702 8.65395 8.89344 8.2039 8.85538C8.14764 8.39867 8.36798 7.91342 8.62582 7.6137C8.9071 7.26641 9.39934 7.01903 9.79783 7C9.84471 7.47574 9.66187 7.94196 9.38528 8.28925ZM9.7931 8.94576C9.39661 8.92261 9.03484 9.06677 8.74262 9.18321C8.55457 9.25814 8.39533 9.32159 8.27418 9.32159C8.13823 9.32159 7.97241 9.25475 7.78624 9.17969C7.54229 9.08135 7.26338 8.96891 6.97091 8.97431C6.30052 8.98382 5.67701 9.36917 5.33479 9.98287C4.63158 11.2103 5.15196 13.0276 5.83172 14.0266C6.16457 14.5214 6.56305 15.0637 7.08811 15.0447C7.3191 15.0359 7.48527 14.9643 7.65723 14.8903C7.85521 14.805 8.06087 14.7165 8.38201 14.7165C8.692 14.7165 8.88867 14.8027 9.07747 14.8855C9.25698 14.9642 9.42936 15.0398 9.68528 15.0352C10.2291 15.0257 10.5713 14.5404 10.9042 14.0457C11.2634 13.5147 11.4212 12.9964 11.4452 12.9178L11.448 12.9087C11.4474 12.9081 11.443 12.906 11.4351 12.9024C11.3151 12.8466 10.3973 12.4202 10.3885 11.2769C10.3796 10.3172 11.1164 9.83098 11.2324 9.75444C11.2395 9.74979 11.2442 9.74664 11.2464 9.745C10.7776 9.04091 10.0463 8.96479 9.7931 8.94576ZM13.5576 14.9829V7.56612H16.3001C17.7159 7.56612 18.7051 8.55566 18.7051 10.0019C18.7051 11.4481 17.6972 12.4472 16.2626 12.4472H14.6921V14.9829H13.5576ZM14.692 8.53663H16C16.9845 8.53663 17.547 9.06945 17.547 10.0067C17.547 10.9439 16.9845 11.4814 15.9953 11.4814H14.692V8.53663ZM22.4509 14.0932C22.1508 14.6736 21.4898 15.04 20.7772 15.04C19.7224 15.04 18.9864 14.4025 18.9864 13.4415C18.9864 12.49 19.699 11.9429 21.0163 11.862L22.4321 11.7764V11.3673C22.4321 10.7631 22.043 10.4348 21.3492 10.4348C20.7772 10.4348 20.36 10.7345 20.2756 11.1912H19.2536C19.2864 10.2303 20.1772 9.53092 21.382 9.53092C22.6806 9.53092 23.5244 10.2207 23.5244 11.2912V14.9829H22.4743V14.0932H22.4509ZM21.0819 14.1598C20.4771 14.1598 20.0927 13.8649 20.0927 13.4129C20.0927 12.9467 20.4631 12.6755 21.171 12.6327L22.432 12.5519V12.9705C22.432 13.6651 21.8507 14.1598 21.0819 14.1598ZM27.0076 15.2731C26.5528 16.5718 26.0325 17 24.9261 17C24.8417 17 24.5604 16.9905 24.4948 16.9715V16.0818C24.5651 16.0913 24.7386 16.1009 24.8277 16.1009C25.3293 16.1009 25.6106 15.8868 25.784 15.3302L25.8871 15.0019L23.9651 9.60229H25.1511L26.4872 13.9838H26.5107L27.8467 9.60229H29L27.0076 15.2731Z" fill="#2F3250"/>
</svg>
