<svg width="40" height="40" viewBox="0 0 40 40" fill="none" xmlns="http://www.w3.org/2000/svg">
<rect x="0.5" y="0.5" width="39" height="39" stroke="#E0E2EC"/>
<path d="M29 13.9845C29 12.399 27.601 11 26.0155 11H13.9845C12.399 11 11 12.399 11 13.9845V26.0155C11 27.601 12.399 29 13.9845 29H20.0466V22.1917H17.8083V19.2073H20.0466V17.9948C20.0466 15.943 21.5389 14.171 23.4041 14.171H25.829V17.1554H23.4041C23.1244 17.1554 22.8446 17.4352 22.8446 17.9948V19.2073H25.829V22.1917H22.8446V29H26.0155C27.601 29 29 27.601 29 26.0155V13.9845Z" fill="#E0E2EC"/>
</svg>
