<svg width="34" height="24" viewBox="0 0 34 24" fill="none" xmlns="http://www.w3.org/2000/svg">
<rect x="0.5" y="0.5" width="33" height="23" rx="1.5" fill="#FCFCFC" stroke="#E0E2EC"/>
<path fill-rule="evenodd" clip-rule="evenodd" d="M16.0689 14.822V11.8874H17.5657C18.1791 11.8874 18.6968 11.6794 19.1188 11.2692L19.2201 11.1653C19.991 10.3161 19.9404 8.99315 19.1188 8.20749C18.708 7.79156 18.1453 7.56626 17.5657 7.57782H15.163V14.822H16.0689ZM16.069 10.9976V8.46729H17.5885C17.915 8.46729 18.2245 8.59438 18.4552 8.82545C18.9449 9.31071 18.9561 10.1195 18.4834 10.6221C18.2526 10.8705 17.9262 11.0091 17.5885 10.9976H16.069ZM23.4461 10.2524C23.0578 9.88847 22.5289 9.70361 21.8593 9.70361C20.9983 9.70361 20.3512 10.0271 19.9235 10.6684L20.7226 11.1825C21.0152 10.7435 21.4147 10.5239 21.9212 10.5239C22.2419 10.5239 22.5514 10.6452 22.7934 10.8648C23.0297 11.0727 23.1648 11.3731 23.1648 11.6909V11.9046C22.8159 11.7082 22.377 11.6042 21.8368 11.6042C21.2065 11.6042 20.7001 11.7544 20.3231 12.0606C19.9461 12.3668 19.7547 12.7711 19.7547 13.2853C19.7435 13.7532 19.9404 14.198 20.2893 14.4984C20.6438 14.8219 21.094 14.9837 21.6229 14.9837C22.2475 14.9837 22.7427 14.7006 23.1197 14.1345H23.1591V14.8219H24.0257V11.766C24.0257 11.1247 23.8344 10.6164 23.4461 10.2524ZM20.9872 13.9092C20.8015 13.7705 20.689 13.5452 20.689 13.3026C20.689 13.0311 20.8128 12.8058 21.0548 12.6267C21.3024 12.4476 21.612 12.3552 21.9778 12.3552C22.4843 12.3494 22.8783 12.4649 23.1597 12.696C23.1597 13.0888 23.0077 13.4297 22.7094 13.7185C22.4393 13.9958 22.0735 14.1518 21.6907 14.1518C21.4375 14.1576 21.1899 14.0709 20.9872 13.9092ZM25.9727 16.9999L29 9.86548H28.0153L26.6141 13.424H26.5973L25.1624 9.86548H24.1776L26.164 14.5043L25.0386 16.9999H25.9727Z" fill="#2F3250"/>
<path d="M12.9412 11.2521C12.9412 10.969 12.9187 10.686 12.8737 10.4087H9.05286V12.0089H11.2418C11.1518 12.523 10.8592 12.9852 10.4315 13.274V14.3139H11.737C12.5023 13.5917 12.9412 12.523 12.9412 11.2521Z" fill="#4285F4"/>
<path d="M9.05304 15.3189C10.1447 15.3189 11.0675 14.9492 11.7372 14.3138L10.4317 13.2739C10.0659 13.5281 9.59887 13.6725 9.05304 13.6725C7.99514 13.6725 7.10044 12.9389 6.77969 11.9568H5.43481V13.0313C6.12132 14.4351 7.52247 15.3189 9.05304 15.3189Z" fill="#34A853"/>
<path d="M6.77985 11.9568C6.61101 11.4427 6.61101 10.8823 6.77985 10.3624V9.2937H5.43476C4.85508 10.4664 4.85508 11.8529 5.43476 13.0256L6.77985 11.9568Z" fill="#FBBC04"/>
<path d="M9.05304 8.64666C9.63263 8.63511 10.1897 8.8604 10.6061 9.27056L11.7653 8.08053C11.0282 7.37575 10.0603 6.9887 9.05304 7.00025C7.52247 7.00025 6.12132 7.88989 5.43481 9.29367L6.77969 10.3682C7.10044 9.38032 7.99514 8.64666 9.05304 8.64666Z" fill="#EA4335"/>
</svg>
