<svg width="34" height="24" viewBox="0 0 34 24" fill="none" xmlns="http://www.w3.org/2000/svg">
<rect x="0.5" y="0.5" width="33" height="23" rx="1.5" fill="#FCFCFC" stroke="#E0E2EC"/>
<path fill-rule="evenodd" clip-rule="evenodd" d="M17 16.5667C15.9408 17.4604 14.5669 18 13.0656 18C9.71565 18 7 15.3137 7 12C7 8.68629 9.71565 6 13.0656 6C14.5669 6 15.9408 6.53956 17 7.43334C18.0592 6.53956 19.4331 6 20.9345 6C24.2844 6 27 8.68629 27 12C27 15.3137 24.2844 18 20.9345 18C19.4331 18 18.0592 17.4604 17 16.5667Z" fill="#ED0006"/>
<path fill-rule="evenodd" clip-rule="evenodd" d="M17 16.5667C18.3042 15.4662 19.1311 13.8286 19.1311 12C19.1311 10.1714 18.3042 8.53385 17 7.43334C18.0592 6.53956 19.4331 6 20.9344 6C24.2844 6 27 8.68629 27 12C27 15.3137 24.2844 18 20.9344 18C19.4331 18 18.0592 17.4604 17 16.5667Z" fill="#F9A000"/>
<path fill-rule="evenodd" clip-rule="evenodd" d="M17 16.5667C18.3042 15.4662 19.1311 13.8286 19.1311 12C19.1311 10.1714 18.3042 8.53386 17 7.43335C15.6959 8.53386 14.8689 10.1714 14.8689 12C14.8689 13.8286 15.6959 15.4662 17 16.5667Z" fill="#FF5E00"/>
</svg>
