<svg width="40" height="40" viewBox="0 0 40 40" fill="none" xmlns="http://www.w3.org/2000/svg">
<rect x="0.5" y="0.5" width="39" height="39" stroke="#E0E2EC"/>
<path d="M26.5444 22.5385C27.0813 22.0234 27.158 21.2876 26.6978 20.5518C26.3143 19.9632 25.6241 19.6689 24.8571 19.8161C24.5503 19.8896 24.2435 20.0368 23.9367 20.2575C21.559 21.8027 18.3377 21.7291 15.9601 20.184C15.8067 20.1104 15.6533 20.0368 15.4999 19.9632C14.6562 19.5953 13.8125 19.7425 13.3523 20.4783C12.8154 21.2141 12.8921 22.0234 13.5824 22.6856C13.7358 22.8328 13.8892 22.9064 13.9659 23.0535L14.0426 23.1271C15.1164 23.9365 16.4203 24.4515 18.1076 24.6722L17.1105 25.6288C16.2669 26.4381 15.3465 27.3211 14.5028 28.1304C14.2727 28.3512 13.9659 28.7191 13.9659 29.2341C13.9659 29.8963 14.3494 30.5585 15.0397 30.8528C15.2698 31 15.4999 31 15.73 31C16.1135 31 16.5737 30.8528 16.8804 30.485C18.0309 29.3813 18.9513 28.4983 19.8717 27.6154C19.9484 27.5418 19.9484 27.5418 19.9484 27.5418C19.9484 27.5418 20.0251 27.5418 20.0251 27.6154C20.6387 28.2776 21.329 28.8662 21.9425 29.5284C22.2493 29.8227 22.5561 30.1171 22.8629 30.4114C23.2464 30.7793 23.5532 30.9264 24.0134 30.9264C24.7037 31 25.4707 30.5585 25.7775 29.8963C26.0842 29.3077 25.9308 28.5719 25.394 28.1304C24.627 27.3947 23.86 26.5853 23.0163 25.8495L21.7124 24.5987C22.4027 24.5251 23.1697 24.3779 23.86 24.0836C25.0105 23.7157 25.8542 23.2007 26.5444 22.5385Z" fill="#E0E2EC"/>
<path d="M19.9484 20.4783C23.2464 20.4783 25.9308 17.9766 25.9308 14.8127C25.9308 13.2676 25.3173 11.796 24.1668 10.6923C23.0163 9.58863 21.559 9 20.0251 9C16.7271 9 14.1193 11.5752 14.0426 14.6655C14.0426 16.2107 14.6562 17.6087 15.8067 18.7124C16.8805 19.8896 18.3377 20.4783 19.9484 20.4783ZM18.261 13.1204C18.7212 12.6789 19.3348 12.4582 19.9484 12.4582C21.3289 12.4582 22.326 13.4883 22.326 14.7391C22.326 16.0635 21.2522 17.0201 19.9484 17.0201C18.5678 17.0201 17.5707 15.99 17.5707 14.7391C17.5707 14.1505 17.8008 13.5619 18.261 13.1204Z" fill="#E0E2EC"/>
<path d="M26.5444 22.5385C27.0813 22.0234 27.158 21.2876 26.6978 20.5518C26.3143 19.9632 25.6241 19.6689 24.8571 19.8161C24.5503 19.8896 24.2435 20.0368 23.9367 20.2575C21.559 21.8027 18.3377 21.7291 15.9601 20.184C15.8067 20.1104 15.6533 20.0368 15.4999 19.9632C14.6562 19.5953 13.8125 19.7425 13.3523 20.4783C12.8154 21.2141 12.8921 22.0234 13.5824 22.6856C13.7358 22.8328 13.8892 22.9064 13.9659 23.0535L14.0426 23.1271C15.1164 23.9365 16.4203 24.4515 18.1076 24.6722L17.1105 25.6288C16.2669 26.4381 15.3465 27.3211 14.5028 28.1304C14.2727 28.3512 13.9659 28.7191 13.9659 29.2341C13.9659 29.8963 14.3494 30.5585 15.0397 30.8528C15.2698 31 15.4999 31 15.73 31C16.1135 31 16.5737 30.8528 16.8804 30.485C18.0309 29.3813 18.9513 28.4983 19.8717 27.6154C19.9484 27.5418 19.9484 27.5418 19.9484 27.5418C19.9484 27.5418 20.0251 27.5418 20.0251 27.6154C20.6387 28.2776 21.329 28.8662 21.9425 29.5284C22.2493 29.8227 22.5561 30.1171 22.8629 30.4114C23.2464 30.7793 23.5532 30.9264 24.0134 30.9264C24.7037 31 25.4707 30.5585 25.7775 29.8963C26.0842 29.3077 25.9308 28.5719 25.394 28.1304C24.627 27.3947 23.86 26.5853 23.0163 25.8495L21.7124 24.5987C22.4027 24.5251 23.1697 24.3779 23.86 24.0836C25.0105 23.7157 25.8542 23.2007 26.5444 22.5385Z" fill="#E0E2EC"/>
</svg>
