<svg width="40" height="40" viewBox="0 0 40 40" fill="none" xmlns="http://www.w3.org/2000/svg">
<rect x="0.5" y="0.5" width="39" height="39" stroke="#E0E2EC"/>
<path d="M30 13.9487C29.2857 14.2564 28.4694 14.4615 27.6531 14.5641C28.4694 14.0513 29.1837 13.2308 29.4898 12.3077C28.6735 12.8205 27.8572 13.1282 26.8367 13.3333C26.1225 12.5128 25 12 23.8775 12C21.6326 12 19.7959 13.8462 19.7959 16.1026C19.7959 16.4103 19.7959 16.7179 19.898 17.0256C16.5306 16.8205 13.4694 15.1795 11.4286 12.7179C11.1224 13.3333 10.9184 14.0513 10.9184 14.7692C10.9184 16.2051 11.6327 17.4359 12.7551 18.1538C12.0408 18.1538 11.4286 17.9487 10.9184 17.641C10.9184 19.5897 12.3469 21.3333 14.1837 21.641C13.8775 21.7436 13.4694 21.7436 13.0612 21.7436C12.7551 21.7436 12.551 21.7436 12.2449 21.641C12.7551 23.282 14.2857 24.5128 16.1225 24.5128C14.6939 25.641 12.9592 26.2564 11.0204 26.2564C10.7143 26.2564 10.4082 26.2564 10 26.1538C11.8367 27.282 13.9796 28 16.3265 28C23.8776 28 27.9592 21.7436 27.9592 16.3077V15.7949C28.7755 15.4872 29.4898 14.7692 30 13.9487Z" fill="#E0E2EC"/>
</svg>
