<svg width="40" height="40" viewBox="0 0 40 40" fill="none" xmlns="http://www.w3.org/2000/svg">
<rect x="0.5" y="0.5" width="39" height="39" stroke="#E0E2EC"/>
<path d="M29.8142 24.7671C29.8142 24.6849 29.7346 24.6849 29.7346 24.6027C29.4163 23.9452 28.7002 23.1233 27.7453 22.2192C27.2678 21.8082 27.0291 21.4795 26.8699 21.3151C26.6312 20.9863 26.6312 20.7397 26.7108 20.411C26.7904 20.1644 27.1087 19.7534 27.6657 19.0137C27.984 18.6027 28.1431 18.3562 28.3819 18.1096C29.5755 16.4658 30.1325 15.3973 29.9734 14.9041L29.8938 14.8219C29.8142 14.7397 29.7346 14.6575 29.5755 14.6575C29.4163 14.5753 29.1776 14.5753 28.9389 14.6575H25.915C25.8355 14.6575 25.8355 14.6575 25.6763 14.6575C25.5967 14.6575 25.5172 14.6575 25.5172 14.6575H25.4376H25.358L25.2784 14.7397C25.1989 14.8219 25.1989 14.8219 25.1989 14.9041C24.8806 15.8082 24.4827 16.5479 24.0848 17.3699C23.8461 17.7808 23.6074 18.1918 23.3686 18.5206C23.1299 18.8493 22.9707 19.0959 22.8116 19.2603C22.6524 19.4247 22.4933 19.5068 22.4137 19.6712C22.3341 19.7534 22.175 19.8356 22.175 19.7534C22.0954 19.7534 22.0158 19.7534 22.0158 19.6712C21.9363 19.589 21.8567 19.5068 21.7771 19.4247C21.6976 19.3425 21.6975 19.1781 21.618 19.0137C21.618 18.8493 21.618 18.6849 21.618 18.6027C21.618 18.5205 21.618 18.274 21.618 18.1096C21.618 17.863 21.618 17.6986 21.618 17.6164C21.618 17.3699 21.618 17.0411 21.618 16.7123C21.618 16.3836 21.618 16.137 21.618 15.9726C21.618 15.8082 21.618 15.5616 21.618 15.3973C21.618 15.1507 21.618 14.9863 21.618 14.9041C21.618 14.8219 21.5384 14.6575 21.5384 14.5753C21.4588 14.4931 21.3792 14.411 21.2997 14.3288C21.2201 14.2466 21.061 14.2466 20.9814 14.1644C20.5835 14.0822 20.1061 14 19.549 14C18.2758 14 17.4005 14.0822 17.0822 14.2466C16.923 14.3288 16.7639 14.411 16.6843 14.5753C16.5252 14.7397 16.5252 14.8219 16.6047 14.8219C17.0026 14.9041 17.3209 15.0685 17.4801 15.3151L17.5597 15.4795C17.6392 15.5616 17.6392 15.726 17.7188 15.9726C17.7984 16.2192 17.7984 16.4657 17.7984 16.7945C17.7984 17.2877 17.7984 17.7808 17.7984 18.1096C17.7984 18.5206 17.7188 18.7671 17.7188 19.0137C17.7188 19.2603 17.6392 19.4247 17.5597 19.5069C17.4801 19.6712 17.4801 19.7534 17.4005 19.7534C17.4005 19.7534 17.4005 19.8356 17.3209 19.8356C17.2413 19.8356 17.1618 19.9178 17.0026 19.9178C16.923 19.9178 16.7639 19.8356 16.6843 19.7534C16.5252 19.6712 16.366 19.5069 16.2864 19.3425C16.1273 19.1781 15.9681 18.9315 15.809 18.6027C15.6498 18.274 15.4111 17.9452 15.252 17.4521L15.0928 17.1233C15.0132 16.9589 14.8541 16.6301 14.6949 16.2192C14.5358 15.8082 14.3766 15.4795 14.2175 15.0685C14.1379 14.9041 14.0583 14.8219 13.9788 14.7397H13.8992C13.8992 14.7397 13.8196 14.6575 13.74 14.6575C13.6605 14.6575 13.5809 14.5753 13.5013 14.5753H10.6366C10.3183 14.5753 10.1592 14.6575 10.0796 14.7397L10 14.8219C10 14.8219 10 14.9041 10 14.9863C10 15.0685 10 15.1507 10.0796 15.3151C10.4775 16.3014 10.9549 17.2877 11.4324 18.274C11.9098 19.1781 12.3873 20 12.7056 20.5753C13.1034 21.1507 13.4217 21.726 13.8196 22.2192C14.2175 22.7123 14.4562 23.0411 14.5358 23.2055C14.6949 23.3699 14.7745 23.4521 14.8541 23.5342L15.0928 23.7808C15.252 23.9452 15.4907 24.1918 15.809 24.4384C16.1273 24.6849 16.5252 24.9315 16.923 25.1781C17.3209 25.4247 17.7984 25.5891 18.2758 25.7534C18.8329 25.9178 19.3103 26 19.7878 25.9178H20.9814C21.2201 25.9178 21.3793 25.8356 21.5384 25.6712L21.618 25.589C21.618 25.5068 21.6975 25.5069 21.6975 25.4247C21.6975 25.3425 21.6975 25.2603 21.6975 25.0959C21.6975 24.7671 21.6976 24.5206 21.7771 24.274C21.8567 24.0274 21.8567 23.863 21.9363 23.6986C22.0159 23.5343 22.0954 23.4521 22.175 23.3699C22.2546 23.2877 22.3342 23.2055 22.3342 23.2055H22.4137C22.5729 23.1233 22.8116 23.2055 22.9708 23.3699C23.2095 23.5342 23.4482 23.7808 23.6073 24.0274C23.7665 24.274 24.0052 24.5206 24.3235 24.8493C24.6418 25.1781 24.8806 25.4247 25.0397 25.5069L25.2784 25.6712C25.4376 25.7534 25.5967 25.8356 25.8355 25.9178C26.0742 26 26.2333 26 26.3925 26L29.0981 25.9178C29.3368 25.9178 29.5755 25.8356 29.7346 25.7534C29.8938 25.6712 29.9734 25.589 29.9734 25.4247C29.9734 25.3425 29.9734 25.1781 29.9734 25.0959C29.8142 24.9315 29.8142 24.8493 29.8142 24.7671Z" fill="#E0E2EC"/>
</svg>
