<svg width="34" height="24" viewBox="0 0 34 24" fill="none" xmlns="http://www.w3.org/2000/svg">
<rect x="0.5" y="0.5" width="33" height="23" rx="1.5" fill="#FCFCFC" stroke="#E0E2EC"/>
<path d="M23 10.8861C22.9372 10.4853 22.5916 10.2182 22.1204 10.2182C21.9634 10.2182 21.8377 10.2182 21.6806 10.2182C21.3979 10.1848 21.3351 10.285 21.3351 10.5187C21.3351 11.6877 21.3351 12.8232 21.3351 13.9922C21.3351 14.5934 20.7696 15.2279 20.11 15.3615C18.0367 15.8625 15.9633 16.3301 13.89 16.8311C13.6702 16.8979 13.4188 16.8979 13.1675 16.8979C13.0733 16.8979 12.9162 16.8311 12.8848 16.7309C12.8534 16.6641 12.9476 16.5305 13.0105 16.4637C13.1047 16.3969 13.2304 16.3301 13.356 16.2633C13.733 16.1297 14.1414 15.9961 14.5183 15.8625C16.0576 15.3281 17.5969 14.7937 19.1361 14.226C19.8272 13.9922 20.2042 13.4912 20.2042 12.8566C20.2356 10.8527 20.2042 8.81542 20.2042 6.81151C20.2042 6.47752 20.0471 6.21034 19.7016 6.07674C19.2932 5.90975 18.9162 6.04334 18.5707 6.21033C16.3717 7.31248 14.2042 8.41464 12.0052 9.51679C11.377 9.85077 11 10.3183 11 10.9863C11 12.89 11 14.7937 11 16.6975C11 16.7977 11 16.8979 11.0314 16.9647C11.2513 17.5992 11.8168 18 12.5707 18C14.1099 18 15.6492 18 17.1885 18C18.7277 18 20.2356 18 21.7749 18C22.1204 18 22.4031 17.9332 22.6544 17.6994C22.9686 17.4322 22.9686 17.0648 22.9686 16.7309C22.9686 15.0877 23 10.8861 23 10.8861ZM16.5916 10.285C16.7487 9.85077 17.0942 9.58358 17.5969 9.51679C17.9424 9.48339 18.2251 9.68378 18.288 10.0178C18.3508 10.5187 17.7853 11.1199 17.1885 11.1199C16.7173 11.1199 16.4346 10.7525 16.5916 10.285Z" fill="#FD6727"/>
</svg>
